<svg width="24" height="24" viewBox="0 0 24 24" fill="none" xmlns="http://www.w3.org/2000/svg">
<mask id="mask0_636_6841" style="mask-type:alpha" maskUnits="userSpaceOnUse" x="0" y="0" width="24" height="24">
<rect width="24" height="24" fill="#D9D9D9"/>
</mask>
<g mask="url(#mask0_636_6841)">
<path d="M18.4685 7.16719C18.5014 6.88859 18.5179 6.60816 18.5179 6.32746C18.5179 3.9375 16.662 2 14.3727 2H7.44526C7.00951 2 6.63747 2.32852 6.56518 2.77711L4.01259 18.616C3.921 19.1843 4.34067 19.7023 4.89268 19.7023H7.42622C7.86198 19.7023 8.24101 19.374 8.31326 18.9254L8.32512 18.8517L7.97209 21.0426C7.89142 21.5435 8.26129 22 8.74782 22H10.9643C11.3484 22 11.6763 21.7104 11.74 21.315L12.3697 17.408C12.4782 16.7345 13.0367 16.2413 13.6909 16.2413H14.2732C17.436 16.2413 20 13.5646 20 10.2627C20 8.98496 19.395 7.85555 18.4685 7.16719Z" fill="#002987"/>
<path d="M18.4685 7.16719C18.0721 10.5336 15.3238 13.1402 11.9921 13.1402H10.059C9.62268 13.1402 9.24585 13.4436 9.12765 13.8726L7.97209 21.0426C7.89142 21.5435 8.26129 22 8.74782 22H10.9643C11.3484 22 11.6763 21.7104 11.74 21.315L12.3697 17.408C12.4782 16.7345 13.0367 16.2413 13.6909 16.2413H14.2732C17.436 16.2413 20 13.5646 20 10.2627C20 8.98496 19.395 7.85555 18.4685 7.16719Z" fill="#0085CC"/>
<path d="M10.059 13.1402H11.9921C15.3238 13.1402 18.0721 10.5336 18.4685 7.16719C17.874 6.72555 17.1475 6.46496 16.3623 6.46496H11.3166C10.7421 6.46496 10.2516 6.89805 10.1563 7.48945L9.12765 13.8726C9.24585 13.4436 9.62268 13.1402 10.059 13.1402Z" fill="#00186A"/>
</g>
</svg>
