<svg width="16" height="14" viewBox="0 0 16 14" fill="none" xmlns="http://www.w3.org/2000/svg">
<path fill-rule="evenodd" clip-rule="evenodd" d="M6.85093 3.763C6.92267 2.95433 6.64265 2.15394 6.08244 1.56635C5.52223 0.978763 4.7361 0.660905 3.92493 0.694C3.11393 0.661201 2.32808 0.979189 1.76809 1.56674C1.20811 2.15429 0.928227 2.95451 0.999932 3.763C0.926141 4.5718 1.20539 5.37304 1.76591 5.96077C2.32643 6.5485 3.11354 6.86539 3.92493 6.83C4.73649 6.86569 5.52388 6.54893 6.08462 5.96116C6.64537 5.3734 6.92475 4.57198 6.85093 3.763ZM3.15903 2.98316C2.96032 3.19164 2.86114 3.47566 2.88689 3.7625C2.86145 4.04918 2.96076 4.33292 3.15944 4.54117C3.35823 4.74953 3.6372 4.86208 3.92493 4.85C4.21249 4.86179 4.49119 4.74911 4.68975 4.54078C4.88832 4.33245 4.9875 4.04866 4.96193 3.762C4.9875 3.47534 4.88832 3.19155 4.68975 2.98322C4.49119 2.77489 4.21249 2.66221 3.92493 2.674C3.63701 2.66188 3.35786 2.77456 3.15903 2.98316ZM11.5279 0.694C11.1655 0.69464 10.8266 0.873811 10.6219 1.173L3.58693 11.589C3.3342 11.9119 3.28207 12.3486 3.45168 12.7219C3.62129 13.0953 3.98448 13.3433 4.39394 13.3654C4.80341 13.3874 5.19116 13.1799 5.39993 12.827L12.4349 2.411C12.6629 2.07447 12.6868 1.63963 12.4969 1.2802C12.307 0.920773 11.9344 0.695352 11.5279 0.694ZM9.91583 8.04202C10.476 7.45466 11.262 7.13694 12.0729 7.17C12.8841 7.13664 13.6703 7.45424 14.2307 8.04163C14.7911 8.62903 15.0714 9.42931 14.9999 10.238C15.0741 11.0473 14.7947 11.8492 14.2337 12.4372C13.6727 13.0253 12.8849 13.342 12.0729 13.306C11.2612 13.3417 10.4736 13.0248 9.91283 12.4368C9.35205 11.8488 9.0728 11.0471 9.14693 10.238C9.0755 9.42949 9.35566 8.62938 9.91583 8.04202ZM11.3081 11.0168C11.5067 11.2251 11.7854 11.3378 12.0729 11.326C12.3607 11.3381 12.6396 11.2255 12.8384 11.0172C13.0372 10.8088 13.1365 10.5248 13.1109 10.238C13.1316 9.85402 12.9385 9.49004 12.609 9.29184C12.2795 9.09364 11.8674 9.09364 11.5379 9.29184C11.2084 9.49004 11.0153 9.85402 11.0359 10.238C11.0104 10.5247 11.1095 10.8084 11.3081 11.0168Z" fill="#EF9F27"/>
</svg>
