<svg width="48" height="48" viewBox="0 0 48 48" fill="none" xmlns="http://www.w3.org/2000/svg">
<path d="M35.9992 34.5022C35.9737 33.6322 35.9467 32.9377 35.8425 32.5755L35.6197 31.803L34.9957 32.3085C34.7782 32.4855 34.605 32.8035 34.4332 33.1185C34.1707 33.6022 33.8737 34.1497 33.3517 34.2607C33.3049 34.2705 33.2571 34.2755 33.2092 34.2757C32.9392 34.2757 32.7652 34.0642 32.4802 33.5887C32.2132 33.1425 31.9117 32.6362 31.278 32.6362C31.1715 32.6362 31.0605 32.6512 30.939 32.682C30.5645 32.7778 30.1795 32.8267 29.793 32.8275C28.362 32.8275 27.2947 32.1532 26.7855 31.7505L26.427 31.4685L26.0932 31.779C24.561 33.201 22.1685 33.5325 20.4315 33.5602L20.1307 33.5647L19.98 33.825C19.2615 35.0602 17.3175 35.592 15.7575 36.0195C14.9925 36.2295 14.2687 36.4282 13.7707 36.6817C12.9675 37.0912 13.3035 38.1645 13.6597 39.3007L13.824 39.8227L36.0525 35.898L36.033 35.4315C36.0187 35.1202 36.0082 34.809 35.9992 34.5022ZM45.5797 28.2847C45.5092 28.1287 45.3112 27.8677 44.7937 27.8677C44.439 27.8677 43.932 27.987 43.4722 28.1782L43.3912 28.212L43.245 28.347C42.759 28.7535 42.975 29.508 43.362 30.6127C43.6155 31.335 43.9027 32.154 43.6717 32.5702C43.5877 32.7225 43.4347 32.8222 43.2037 32.8747C43.0875 32.901 42.9787 32.9137 42.8797 32.9137C42.72 32.9208 42.5626 32.8732 42.4335 32.7787C42.0097 32.4532 41.976 31.5937 41.943 30.7627C41.9032 29.7517 41.8455 29.2477 41.4765 28.9777L41.2702 28.8907H41.1555C41.0805 28.8907 40.998 28.9027 40.9192 28.9252C39.9082 29.1975 40.101 29.9302 40.2555 30.5182C40.4505 31.266 40.4587 31.653 39.9855 31.9702C39.7822 32.1067 39.5955 32.1757 39.4312 32.1757C39.1402 32.1757 38.8995 31.962 38.6865 31.773C38.439 31.554 38.184 31.3275 37.833 31.3275C37.626 31.3275 37.4602 31.4092 37.353 31.4707L37.191 31.5652L37.1235 31.74C36.9945 32.0745 37.113 32.5065 37.791 34.1745C37.914 34.4745 38.037 34.7835 38.1555 35.0932L38.304 35.4795L38.715 35.4315C39.4297 35.3475 45.723 34.5862 46.3837 33.519C46.962 32.3602 45.8032 28.776 45.5797 28.2847ZM11.7967 38.5282C11.757 37.761 11.7217 37.1955 11.6235 36.9045L11.4982 36.5325L11.1067 36.5422C10.809 36.549 10.2862 36.7147 9.89924 36.8527C9.40724 37.0267 8.84924 37.224 8.38124 37.224C8.27924 37.224 8.18324 37.215 8.09624 37.1962C7.72124 37.1145 7.64099 36.8302 7.59299 36.1822C7.56074 35.739 7.51949 35.1877 7.01849 35.0572C6.92431 35.032 6.82724 35.0191 6.72974 35.019C6.49724 35.019 6.29099 35.0865 6.02174 35.181C5.82899 35.2485 5.58974 35.3332 5.32724 35.3557L5.18774 35.3745C5.04299 35.3745 4.54049 35.403 4.16924 35.772C3.90149 36.0375 3.76949 36.4117 3.77774 36.885C3.81749 39.5197 4.38299 41.004 5.45849 41.2965C5.68799 41.3587 5.97524 41.3895 6.33674 41.3895C7.80374 41.3895 10.272 40.8645 11.4997 40.554L11.949 40.44L11.8987 39.9802C11.8509 39.4973 11.8169 39.0131 11.7967 38.5282Z" fill="#FFA963"/>
<path d="M12.939 42.3525C12.726 42.3525 12.5333 42.2873 12.366 42.1605C11.691 41.646 11.5665 40.2225 11.4825 38.553C11.4488 37.8795 11.4015 36.9683 11.256 36.8753C11.207 36.8629 11.1565 36.8571 11.106 36.858C10.8285 36.858 10.431 36.999 10.0103 37.1475C9.489 37.332 8.904 37.539 8.382 37.539C8.25825 37.539 8.13975 37.527 8.031 37.5038C7.36575 37.3598 7.31775 36.7208 7.27875 36.2078C7.23375 35.6003 7.161 35.4188 6.93825 35.3603C6.87112 35.3431 6.80206 35.3345 6.73275 35.3348C6.534 35.3348 6.33 35.4068 6.13275 35.4765C5.859 35.574 5.55525 35.682 5.1675 35.682C4.81275 35.682 4.443 35.5898 4.035 35.4C3.67125 35.2313 3.426 34.9583 3.309 34.59C3.0225 33.6908 3.59325 32.469 3.77475 32.1165L3.963 31.7483L4.368 31.8413C4.51425 31.875 4.593 31.8938 4.68 31.9043C4.77975 31.9155 4.87275 31.9215 4.96125 31.9215C5.75475 31.9215 6.01875 31.4753 6.25275 31.0815C6.4425 30.7628 6.62025 30.462 7.0155 30.462C7.71525 30.5333 7.75125 31.1018 7.77975 31.5578C7.815 32.106 7.872 32.5118 8.29125 32.7428C8.3957 32.8056 8.51445 32.8407 8.63625 32.8448C8.7765 32.8448 8.92575 32.7825 9.09375 32.6535L9.41925 32.403L9.74325 32.655C10.2818 33.0705 11.811 34.0373 14.3768 34.0373C15.231 34.0373 16.1273 33.9263 17.0408 33.7073C17.3805 33.6255 17.6933 33.5423 17.988 33.4568L18.0638 33.435L18.267 33.4485C18.444 33.474 19.6133 32.0573 20.2583 32.0828L20.6955 33.5978L19.9208 34.4453C18.993 35.4593 17.253 35.9363 15.855 36.3203C15.096 36.528 14.3843 36.723 13.9148 36.9623C13.4325 37.2075 13.5383 37.8585 13.9373 39.135C14.232 40.0725 14.5365 41.0438 14.157 41.7C13.9755 42.015 13.6643 42.2175 13.2053 42.321C13.1179 42.341 13.0286 42.352 12.939 42.3525Z" fill="#F9C900"/>
<path d="M45.5775 28.2825C45.51 28.1325 45.315 27.87 44.79 27.87C44.5425 27.87 44.2275 27.93 43.8975 28.0275C44.28 29.7525 44.4225 31.41 43.7475 32.025C43.77 32.2425 43.7475 32.43 43.6725 32.5725C43.59 32.7225 43.4325 32.82 43.2075 32.8725C43.0875 32.9025 42.975 32.9175 42.8775 32.9175C42.7177 32.9246 42.5607 32.874 42.435 32.775C42.3503 32.7112 42.2811 32.6292 42.2325 32.535C41.19 32.79 39.57 33.1725 37.5675 33.615C37.635 33.7875 37.71 33.975 37.7925 34.1775C37.9125 34.4775 38.04 34.785 38.1525 35.0925L38.3025 35.4825L38.715 35.43C39.4275 35.3475 45.72 34.5825 46.38 33.5175C46.965 32.3625 45.8025 28.7775 45.5775 28.2825ZM36 34.5C35.9925 34.32 35.985 34.14 35.985 33.975C29.715 35.3625 20.7225 37.26 13.77 38.5575C13.815 38.7375 13.8675 38.925 13.935 39.135C14.0025 39.345 14.07 39.5625 14.13 39.7725L36.0525 35.895L36.03 35.43C36.0225 35.1225 36.0075 34.8075 36 34.5ZM4.2525 40.02C4.53 40.725 4.935 41.145 5.46 41.295C5.685 41.3625 5.9775 41.3925 6.3375 41.3925C7.8075 41.3925 10.275 40.8675 11.4975 40.5525L11.655 40.515C11.58 40.0575 11.535 39.5325 11.505 38.97C8.19 39.5625 5.55 39.9675 4.2525 40.02Z" fill="#F49853"/>
<path d="M37.4497 39.2055C37.1752 39.2055 36.939 39.1305 36.7275 38.9737C35.865 38.3377 35.745 36.579 35.6835 34.5165C35.658 33.594 35.631 32.64 35.4435 32.4675C35.181 32.4697 35.016 32.7052 34.713 33.264C34.4167 33.81 34.0807 34.4272 33.4147 34.569C33.3525 34.5825 33.2865 34.5907 33.2212 34.5907C32.7135 34.5907 32.4577 34.1632 32.2102 33.7507C31.929 33.282 31.698 32.9512 31.2825 32.9512C31.1921 32.9524 31.1022 32.9645 31.0147 32.9872C30.616 33.0891 30.2061 33.141 29.7945 33.1417C28.6777 33.1417 27.774 32.7502 27.213 32.4217L25.62 31.3162L27.4792 31.4295C29.0362 31.422 30.3885 31.1122 31.497 30.5077L31.6207 30.4402L31.9537 30.4455C33.1477 30.4455 37.1887 30.2362 38.9737 27.5505L39.0847 27.387L39.2737 27.333C39.612 27.2385 39.8445 27.1005 39.9847 26.9092C40.2975 26.4847 40.1565 25.8457 40.0432 25.3335C40.0115 25.1946 39.984 25.0548 39.9607 24.9142L39.7927 23.7712L40.7707 24.3855C40.899 24.4657 41.0745 24.6067 41.2027 24.7132C41.5762 25.02 42.039 25.401 42.621 25.401C43.011 25.401 43.4362 25.2262 43.8855 24.8805C43.9132 24.8505 43.938 24.8272 43.9672 24.8032L44.5867 24.2887L44.8162 25.0627C45.1642 26.2372 44.7562 27.3975 43.6372 28.4167L43.5352 28.4977L43.4452 28.5907C43.1182 28.8675 43.338 29.5905 43.659 30.507C44.0032 31.4895 44.2252 32.2222 43.9477 32.7232C43.8157 32.9595 43.5952 33.1095 43.2727 33.1815C43.1347 33.213 43.0027 33.2295 42.8805 33.2295C42.5055 33.2295 42.309 33.0795 42.2437 33.03C41.7015 32.613 41.6625 31.6387 41.6287 30.7785C41.6017 30.1155 41.5747 29.4382 41.3265 29.256C41.2758 29.2214 41.2153 29.204 41.154 29.2065C41.102 29.2072 41.0503 29.2147 41.0002 29.229C40.3575 29.403 40.3702 29.7142 40.5592 30.4372C40.7107 31.017 40.899 31.7355 40.161 32.232C39.8962 32.4097 39.6637 32.493 39.4275 32.493C39.024 32.493 38.7615 32.2597 38.4825 32.013C38.2935 31.845 38.0617 31.6402 37.833 31.6402C37.7355 31.6402 37.6305 31.674 37.512 31.743C37.2127 31.917 37.6732 33.0495 38.0797 34.0485C38.7082 35.5927 39.417 37.3297 38.9032 38.3752C38.7187 38.7502 38.3895 39.0052 37.9237 39.1357C37.7696 39.1801 37.6102 39.2036 37.4497 39.2055Z" fill="#F9C900"/>
<path d="M32.5515 29.7788C32.7007 29.649 32.8477 29.5148 32.9865 29.3655L33.1215 29.2193L33.3187 29.1983C33.711 29.1555 34.0087 29.0235 34.2292 28.7955C34.6935 28.3125 34.7017 27.54 34.6845 27.231L34.6695 27.003L34.8262 26.8358C35.0287 26.6205 35.142 26.3168 35.2417 26.0258C35.3767 25.6283 35.4532 25.4408 35.6257 25.3133L35.6482 25.2968L35.733 25.248L35.85 25.2158L35.9962 25.1993C36.4965 25.1993 36.6922 25.6463 36.8992 26.1195C37.215 26.844 37.5247 27.4013 38.3932 27.4395L39.5295 27.4905L38.7637 28.3305C37.1362 30.117 34.4205 30.588 32.946 30.711L31.3282 30.8445L32.5515 29.7788Z" fill="#A02E14"/>
<path d="M27.4177 31.7317C25.5652 31.7317 23.8905 31.3342 23.0557 31.0972L22.3822 30.906L22.7467 30.3075C22.9455 29.9827 22.8435 29.5462 22.7535 29.1615C22.6237 28.611 22.5645 28.3597 22.6912 28.1227L22.8562 27.8137L23.2042 27.8422C23.397 27.8572 23.5702 27.9547 23.9617 28.221C24.2827 28.4385 24.7657 28.7662 25.2495 28.7662C25.3417 28.7662 25.4332 28.7542 25.521 28.731L25.7475 28.6687L25.947 28.7947C26.142 28.92 26.6625 29.2095 27.252 29.2095C27.3795 29.2095 27.5055 29.1952 27.624 29.1675C28.149 29.0475 28.584 28.662 28.92 28.023C29.22 27.4492 29.4952 27.1762 29.811 27.1387H29.8132C30.2557 27.1387 30.546 27.4507 30.9825 27.9585C31.3965 28.4385 31.8637 28.98 32.4862 29.1532L33.459 29.4232L32.6865 30.0735C32.3655 30.3435 32.0632 30.558 31.761 30.729C30.5782 31.3942 29.1172 31.7317 27.4177 31.7317Z" fill="#F40B1C"/>
<path d="M33.0645 29.535C32.9535 29.535 32.8395 29.5298 32.718 29.5163C31.833 29.4263 31.23 28.728 30.7455 28.1663C30.456 27.8295 30.1297 27.4508 29.8777 27.4508C29.6715 27.4733 29.4375 27.7155 29.199 28.1678C28.8202 28.8915 28.3162 29.3303 27.702 29.4728C27.5595 29.5065 27.4087 29.523 27.255 29.523C26.9235 29.523 26.5762 29.445 26.2215 29.292L25.464 28.9643L26.0745 28.4093C26.1267 28.3625 26.1767 28.3135 26.2245 28.2623C26.5342 27.9255 26.6572 27.5783 26.5897 27.2295C26.484 26.676 25.9462 26.2035 25.5142 25.9058L24.5002 25.2053L25.704 24.9473C27.7957 24.4973 30.0345 24.009 32.1975 23.5253L33.3007 23.2785L32.7885 24.2865C32.5848 24.7053 32.5161 25.177 32.592 25.6365C32.7307 26.481 33.2632 27.0803 33.918 27.1275C34.0618 27.1379 34.2064 27.1268 34.347 27.0945L35.0467 26.94L34.9927 27.654C34.9507 28.2323 34.7677 28.6905 34.4527 29.0168C34.119 29.361 33.6517 29.535 33.0645 29.535Z" fill="#599306"/>
<path d="M19.767 33.8693L17.553 33.5903L19.68 32.8508C21.471 32.058 21.7095 31.296 21.7387 31.1513L21.801 30.8528L22.089 30.7545C22.1563 30.7322 22.2224 30.7064 22.287 30.6773L22.482 30.5858L22.6852 30.6555C22.824 30.7035 24.0802 31.128 25.7602 31.3283L27.0277 31.479L26.0287 32.274C24.3675 33.5948 21.9172 33.8723 20.1532 33.8723L19.767 33.8693Z" fill="#A02E14"/>
<path d="M14.4127 34.3463C11.853 34.3463 10.227 33.3863 9.64649 32.9738L9.17624 32.6393L9.62849 32.1023C9.93599 31.737 10.1587 31.491 10.44 31.4048L10.53 31.3823L10.6275 31.3755C10.9417 31.3755 11.2102 31.566 11.5215 31.788C11.9212 32.0715 12.3712 32.391 12.9067 32.391C13.1715 32.391 13.4392 32.316 13.7257 32.1623C13.9672 32.031 14.1697 31.8278 14.3257 31.5608L14.6167 31.0583L15.0922 31.3928C15.3937 31.6058 15.8745 31.8585 16.4482 31.8585C16.7505 31.8585 17.0505 31.7858 17.3422 31.6425C18.0397 31.2998 18.057 30.8288 18.0075 30.249L18.0037 30.204L18.3285 29.6093L18.9495 29.8268L19.0575 29.994C19.3275 30.423 19.6627 30.954 20.7855 30.954C20.9407 30.954 21.1095 30.9443 21.291 30.9225L22.4932 30.7778L21.7875 31.7618C21.3397 32.3858 20.166 33.2835 17.115 34.014C16.1925 34.2345 15.2827 34.3463 14.4127 34.3463Z" fill="#F40B1C"/>
<path d="M16.4453 32.1713C15.5978 32.1713 14.9588 31.7085 14.724 31.5098L14.472 31.2953L14.5508 30.9743C14.742 30.0308 14.421 28.8068 14.0048 28.089L13.6313 27.444L14.361 27.2993C17.2811 26.7171 20.1977 26.1171 23.1105 25.4993L24.8685 25.1265L25.0598 25.2615C25.6845 25.5938 26.7263 26.2703 26.8988 27.1695C26.9858 27.6233 26.8373 28.062 26.4563 28.476C26.0783 28.887 25.68 29.0865 25.239 29.0865C24.7215 29.0865 24.2558 28.8 23.784 28.482C23.592 28.3508 23.301 28.1528 23.1518 28.1528C22.9148 28.3305 22.938 28.5713 23.0588 29.088C23.1668 29.5485 23.289 30.0705 22.9965 30.5085C22.7633 30.8603 22.299 31.0898 21.5768 31.2105C21.2813 31.2593 21.0083 31.2848 20.7638 31.2848C19.4985 31.2848 19.0785 30.6188 18.801 30.1778C18.6113 29.8755 18.5385 29.8028 18.426 29.8028C18.369 29.8058 18.3413 29.8178 18.336 29.8253C18.291 29.8763 18.3083 30.0743 18.321 30.2183C18.363 30.7133 18.4275 31.461 17.481 31.926C17.1592 32.0863 16.8048 32.1703 16.4453 32.1713ZM38.478 27.765C37.2735 27.765 36.909 26.9295 36.615 26.2583C36.39 25.7423 36.2528 25.5128 36.03 25.5128C35.9811 25.5134 35.9325 25.5199 35.8853 25.5323C35.7405 25.569 35.6505 25.8008 35.5403 26.1248C35.3505 26.6835 35.0903 27.4493 34.0628 27.4493C34.0088 27.4493 33.9533 27.447 33.894 27.4418C32.967 27.3743 32.4165 26.5118 32.2815 25.6875C32.1345 24.7815 32.439 23.676 33.4538 23.2523C38.559 22.0913 41.7563 21.303 42.981 20.9033L43.2765 20.8058L43.5068 21.0173C43.845 21.3285 44.9483 22.4378 44.9138 23.637C44.8958 24.213 44.6145 24.7155 44.0775 25.1295C43.5705 25.521 43.0935 25.7115 42.6195 25.7115C41.9198 25.7115 41.4315 25.3095 41.0018 24.9548C40.7655 24.762 40.5248 24.564 40.3695 24.564C40.281 24.579 40.203 24.5978 40.3508 25.2653C40.4783 25.8405 40.6358 26.5568 40.2383 27.0968C39.9593 27.4763 39.462 27.6915 38.7173 27.7538C38.6348 27.7613 38.5545 27.765 38.478 27.765Z" fill="#77A505"/>
<path d="M8.634 33.1545C8.46001 33.1523 8.28953 33.1053 8.139 33.018C7.53675 32.6872 7.49775 32.073 7.46625 31.578C7.425 30.9232 7.33275 30.8092 7.056 30.7792C6.825 30.78 6.7185 30.915 6.53475 31.224C6.28125 31.6515 5.93475 32.2365 4.96575 32.2365C4.86825 32.2365 4.76175 32.2305 4.6455 32.2177C3.93375 32.136 3.4095 31.8592 3.0855 31.3942C2.63475 30.7447 2.71425 29.9167 2.769 29.592L2.8425 29.1645L3.276 29.1495C4.64175 29.1007 8.106 28.5315 13.5705 27.456L13.89 27.3937L14.091 27.6487C14.481 28.14 15.1327 29.6805 14.871 31.0102C14.742 31.6627 14.397 32.1562 13.8735 32.439C13.542 32.619 13.2232 32.7067 12.9007 32.7067C12.2715 32.7067 11.7967 32.3692 11.3775 32.0722C11.1135 31.8847 10.842 31.6897 10.635 31.6897C10.6001 31.6897 10.5655 31.6951 10.5322 31.7055C10.3192 31.7715 10.0912 32.043 9.87075 32.3055C9.45225 32.802 9.11775 33.1545 8.63325 33.1545H8.634Z" fill="#599306"/>
<path d="M3.45074 21.8228C7.26299 17.142 16.344 6.24001 18.1755 5.66776C18.288 5.63326 18.417 5.61676 18.5707 5.61676C21.5662 5.61676 38.7382 12.7125 41.9932 15.0068L42.6622 15.5505L41.8237 15.9578C40.035 16.4325 30.6585 18.9008 21.6975 20.8905C12.813 22.863 3.98624 24.4388 2.30774 24.735L1.42874 24.537C1.42874 24.537 2.53574 22.947 3.45074 21.8228Z" fill="#FCC683"/>
<path d="M42.66 15.5475L41.82 15.96C40.035 16.4325 30.66 18.9 21.6975 20.8875C12.81 22.86 3.99 24.4425 2.31 24.735L1.4325 24.54C1.4325 24.54 1.9425 23.7975 2.5575 22.9725C6.285 22.2675 11.4 21.2625 16.53 20.1225C25.17 18.2025 34.2 15.84 36.435 15.2475C36.585 15.21 36.72 15.1575 36.855 15.09L37.4925 14.7825L36.9075 14.31C36.8475 14.265 36.8025 14.2275 36.7425 14.1825C34.1325 12.405 23.835 7.98749 17.685 5.93249C17.88 5.79749 18.045 5.70749 18.1725 5.66999C18.285 5.63249 18.42 5.61749 18.57 5.61749C21.5625 5.61749 38.7375 12.7125 41.9925 15.0075L42.66 15.5475Z" fill="#F7BE7F"/>
<path d="M3.26624 29.5373C3.12899 29.5373 3.00524 29.5245 2.88974 29.499L2.78849 29.469C2.20799 29.127 1.76249 28.2743 1.51274 27.0975C1.34924 26.3288 1.30049 25.569 1.37699 24.9585L1.42949 24.537L1.85699 24.4695C1.92974 24.4575 11.622 22.8045 21.63 20.583C29.3377 18.8723 37.2075 16.8443 40.4977 15.981C41.4255 15.738 42.6622 15.5505 42.6622 15.5505L42.7695 15.8055C43.8225 17.913 44.742 20.1818 43.569 21.0098C43.1077 21.3353 42.4867 21.4718 41.94 21.5918C41.7772 21.627 41.6235 21.6608 41.4862 21.6975C40.0845 22.0725 38.6857 22.404 37.3725 22.7115C33.4485 23.6333 29.5672 24.4665 25.9575 25.2308C22.9882 25.8608 19.893 26.4983 16.7572 27.126C14.2366 27.634 11.7121 28.122 9.18374 28.59L8.83874 28.6538C7.30724 28.9358 5.73899 29.2253 4.18124 29.4285C4.10924 29.4375 4.03199 29.451 3.95324 29.4638C3.74399 29.4983 3.50774 29.5373 3.26624 29.5373Z" fill="#FFA963"/>
<path d="M43.5675 21.0075C43.11 21.3375 42.4875 21.4725 41.94 21.5925C41.775 21.63 41.625 21.66 41.49 21.6975C40.0875 22.0725 38.685 22.4025 37.3725 22.71C33.45 23.6325 29.565 24.465 25.9575 25.23C22.9875 25.86 19.89 26.4975 16.755 27.1275C13.77 27.7275 11.3625 28.1925 9.1875 28.59L8.8425 28.65C7.305 28.935 5.7375 29.2275 4.185 29.43C4.11 29.4375 4.035 29.4525 3.9525 29.46C3.7425 29.4975 3.51 29.535 3.27 29.535C3.1275 29.535 3.0075 29.5275 2.8875 29.4975L2.79 29.4675C2.5125 29.31 2.265 29.0325 2.0625 28.6575L2.2275 28.635C2.31 28.62 2.385 28.605 2.46 28.5975C4.0125 28.395 5.5875 28.1025 7.1175 27.825L7.4625 27.7575C9.6375 27.36 12.045 26.895 15.03 26.295C18.1725 25.665 21.2625 25.0275 24.2325 24.3975C27.84 23.64 31.725 22.8 35.6475 21.885C36.96 21.5775 38.3625 21.24 39.765 20.865C39.9 20.8275 40.0575 20.7975 40.215 20.76C40.7625 20.64 41.385 20.505 41.8425 20.1825C42.8775 19.455 42.2925 17.625 41.43 15.765C42.0825 15.6375 42.66 15.5475 42.66 15.5475L42.7725 15.8025C43.8225 17.91 44.745 20.1825 43.5675 21.0075Z" fill="#F49853"/>
</svg>
