<svg width="25" height="24" viewBox="0 0 25 24" fill="none" xmlns="http://www.w3.org/2000/svg">
<path fill-rule="evenodd" clip-rule="evenodd" d="M12.873 5.06696L18.258 7.05396C18.6824 7.20939 18.965 7.61293 18.966 8.06496V11.047C19.0712 14.8691 16.419 18.2159 12.674 18.987C12.5614 19.0056 12.4465 19.0056 12.334 18.987C8.58891 18.2159 5.93675 14.8691 6.04196 11.047V8.06496C6.04165 7.61497 6.32064 7.21203 6.74196 7.05396L12.127 5.06696C12.3677 4.978 12.6323 4.978 12.873 5.06696ZM12.311 13.844L15.324 10.569L15.332 10.573C15.4972 10.3665 15.5397 10.0875 15.4435 9.84115C15.3473 9.5948 15.127 9.4185 14.8655 9.37865C14.604 9.3388 14.3412 9.44146 14.176 9.64796L11.676 12.277L10.776 11.377C10.4868 11.0878 10.0181 11.0878 9.72896 11.377C9.43984 11.6661 9.43984 12.1348 9.72896 12.424L11.21 13.9C11.3481 14.0399 11.5363 14.119 11.733 14.12H11.774C11.9842 14.109 12.1797 14.0085 12.311 13.844Z" fill="#00875A"/>
</svg>
