<svg width="25" height="24" viewBox="0 0 25 24" fill="none" xmlns="http://www.w3.org/2000/svg">
<path fill-rule="evenodd" clip-rule="evenodd" d="M13.331 5.68796L15.085 9.38796L18.677 9.76896C19.0489 9.80504 19.3619 10.0627 19.4688 10.4207C19.5757 10.7788 19.4552 11.1659 19.164 11.4L16.3 13.755L17.186 17.714C17.2669 18.0737 17.125 18.447 16.8255 18.6621C16.5261 18.8772 16.127 18.8925 15.812 18.701L12.5 16.686L9.18497 18.7C8.86977 18.8911 8.47088 18.8757 8.1714 18.6607C7.87192 18.4457 7.72968 18.0728 7.80997 17.713L8.69997 13.755L5.83597 11.4C5.54683 11.1653 5.42791 10.7793 5.53484 10.4225C5.64176 10.0658 5.9534 9.8089 6.32397 9.77196L9.91497 9.39096L11.669 5.68796C11.8214 5.36715 12.1448 5.16272 12.5 5.16272C12.8551 5.16272 13.1786 5.36715 13.331 5.68796Z" fill="#EF9F27"/>
</svg>
