<svg width="35" height="34" viewBox="0 0 35 34" fill="none" xmlns="http://www.w3.org/2000/svg">
<path d="M17.5236 0.331482C8.3186 0.331482 0.856934 7.79314 0.856934 16.9981C0.856934 26.2031 8.3186 33.6648 17.5236 33.6648C26.7286 33.6648 34.1903 26.2031 34.1903 16.9981C34.1903 7.79314 26.7286 0.331482 17.5236 0.331482ZM24.1903 11.9981C24.6169 11.9981 25.0619 12.1415 25.3886 12.4665C26.0386 13.1181 26.0386 14.2115 25.3886 14.8631L19.1386 21.0614C17.2203 22.9781 14.2886 22.6915 12.7836 20.4348L11.1169 17.9348C10.6069 17.1698 10.8202 16.1031 11.5869 15.5915C12.3519 15.0815 13.4186 15.2948 13.9303 16.0614L15.5969 18.5614C15.9336 19.0664 16.3653 19.1465 16.7936 18.7165L22.9919 12.4665C23.3186 12.1415 23.7636 11.9981 24.1903 11.9981Z" fill="#36B37E"/>
</svg>
