<svg width="24" height="24" viewBox="0 0 24 24" fill="none" xmlns="http://www.w3.org/2000/svg">
<mask id="mask0_636_6849" style="mask-type:alpha" maskUnits="userSpaceOnUse" x="0" y="0" width="24" height="24">
<rect width="24" height="24" fill="#D9D9D9"/>
</mask>
<g mask="url(#mask0_636_6849)">
<path d="M1.19483 5.56921H20.9718C21.0235 5.56924 21.073 5.58977 21.1096 5.6263C21.1461 5.66284 21.1666 5.71238 21.1667 5.76405V15.9231C21.1666 15.9747 21.1461 16.0243 21.1096 16.0608C21.073 16.0973 21.0235 16.1179 20.9718 16.1179H1.19488C1.1432 16.1179 1.09364 16.0973 1.0571 16.0608C1.02056 16.0243 1.00002 15.9747 1 15.923V5.76409C1.00002 5.71242 1.02056 5.66288 1.05709 5.62635C1.09362 5.58981 1.14317 5.56924 1.19483 5.56921Z" fill="#2AB52D"/>
<path fill-rule="evenodd" clip-rule="evenodd" d="M1.19488 5.56921H1.26653V16.1179H1.19488C1.14324 16.1178 1.09376 16.0972 1.05725 16.0607C1.02073 16.0242 1.00015 15.9747 1 15.9231V5.76409C1.00015 5.71246 1.02073 5.66298 1.05725 5.62647C1.09376 5.58997 1.14324 5.56936 1.19488 5.56921Z" fill="#009903"/>
<path fill-rule="evenodd" clip-rule="evenodd" d="M3.35547 5.56921H18.8112C18.8112 6.87009 19.8658 7.92468 21.1667 7.92468V13.7624C19.8658 13.7624 18.8112 14.817 18.8112 16.1179H3.35547C3.35547 14.817 2.30087 13.7624 1 13.7624V7.92472C2.30087 7.92472 3.35547 6.87009 3.35547 5.56921Z" fill="#32D736"/>
<path fill-rule="evenodd" clip-rule="evenodd" d="M1.26649 13.7776C1.17801 13.7676 1.08904 13.7626 1 13.7625V7.9248C1.09013 7.9248 1.17903 7.91953 1.26649 7.9097V13.7776Z" fill="#2AB52D"/>
<path fill-rule="evenodd" clip-rule="evenodd" d="M4.19489 6.55696C3.86992 7.60884 3.03967 8.43913 1.98779 8.76406V12.9231C3.03967 13.2481 3.86996 14.0783 4.19489 15.1302H17.9719C18.2968 14.0783 19.1271 13.2481 20.1789 12.9231V8.76406C19.1271 8.43909 18.2968 7.60884 17.9719 6.55696H4.19489Z" fill="#51E854"/>
<path d="M13.3466 13.109C14.5978 11.8578 14.5978 9.82926 13.3466 8.57809C12.0955 7.32692 10.0669 7.32692 8.81574 8.57809C7.56457 9.82926 7.56457 11.8578 8.81574 13.109C10.0669 14.3602 12.0955 14.3602 13.3466 13.109Z" fill="#7DFF7F"/>
<path fill-rule="evenodd" clip-rule="evenodd" d="M5.9458 10.8341C5.9458 10.7686 5.97182 10.7058 6.01813 10.6595C6.06444 10.6132 6.12725 10.5872 6.19274 10.5872C6.25823 10.5872 6.32104 10.6132 6.36735 10.6595C6.41366 10.7058 6.43968 10.7686 6.43968 10.8341V10.8531C6.43968 10.9186 6.41366 10.9814 6.36735 11.0277C6.32104 11.074 6.25823 11.1 6.19274 11.1C6.12725 11.1 6.06444 11.074 6.01813 11.0277C5.97182 10.9814 5.9458 10.9186 5.9458 10.8531V10.8341ZM15.7269 10.8341C15.7269 10.7686 15.7529 10.7058 15.7992 10.6595C15.8456 10.6132 15.9084 10.5872 15.9739 10.5872C16.0394 10.5872 16.1022 10.6132 16.1485 10.6595C16.1948 10.7058 16.2208 10.7686 16.2208 10.8341V10.8531C16.2208 10.9186 16.1948 10.9814 16.1485 11.0277C16.1022 11.074 16.0394 11.1 15.9739 11.1C15.9084 11.1 15.8456 11.074 15.7992 11.0277C15.7529 10.9814 15.7269 10.9186 15.7269 10.8531V10.8341Z" fill="#2AB52D"/>
<path fill-rule="evenodd" clip-rule="evenodd" d="M10.3706 11.6889C10.3646 11.657 10.3523 11.6266 10.3345 11.5995C10.3168 11.5724 10.2938 11.549 10.267 11.5307C10.2129 11.4938 10.1463 11.48 10.0819 11.4921C10.0176 11.5043 9.96066 11.5416 9.92376 11.5957C9.88686 11.6499 9.87298 11.7165 9.88518 11.7808C9.98375 12.2997 10.4002 12.5884 10.8369 12.678V13.0722C10.8363 13.1051 10.8422 13.1376 10.8544 13.1681C10.8665 13.1986 10.8846 13.2264 10.9076 13.2498C10.9306 13.2732 10.958 13.2918 10.9882 13.3045C11.0185 13.3172 11.051 13.3237 11.0838 13.3237C11.1166 13.3237 11.1491 13.3172 11.1793 13.3045C11.2096 13.2918 11.237 13.2732 11.26 13.2498C11.283 13.2264 11.3011 13.1986 11.3132 13.1681C11.3253 13.1376 11.3313 13.1051 11.3307 13.0722V12.6971C11.8024 12.6394 12.1616 12.3665 12.2546 11.9752C12.3346 11.6392 12.3309 11.027 11.4061 10.7041C11.3813 10.6955 11.3558 10.6877 11.3307 10.6795V9.50324C11.4608 9.53711 11.737 9.6433 11.7917 9.93839C11.8163 10.0726 11.9452 10.161 12.0793 10.1363C12.1437 10.1243 12.2007 10.0874 12.2378 10.0334C12.275 9.97947 12.2892 9.913 12.2774 9.84859C12.2016 9.44031 11.8868 9.13061 11.4353 9.02015C11.4007 9.01172 11.3658 9.00451 11.3307 8.99854V8.615C11.3313 8.5822 11.3253 8.54961 11.3132 8.51913C11.3011 8.48865 11.283 8.46089 11.26 8.43748C11.237 8.41407 11.2096 8.39548 11.1793 8.38279C11.1491 8.37009 11.1166 8.36356 11.0838 8.36356C11.051 8.36356 11.0185 8.37009 10.9882 8.38279C10.958 8.39548 10.9306 8.41407 10.9076 8.43748C10.8846 8.46089 10.8665 8.48865 10.8544 8.51913C10.8422 8.54961 10.8363 8.5822 10.8369 8.615V8.99891C10.5511 9.04916 10.2977 9.18609 10.1347 9.39492C9.81854 9.79928 9.86295 10.3737 10.2375 10.7307C10.4054 10.891 10.6236 10.9791 10.8369 11.0465V12.1694C10.6195 12.1019 10.4207 11.9534 10.3706 11.6889ZM11.7744 11.8609C11.7294 12.0484 11.5389 12.156 11.3307 12.1965V11.2037C11.8769 11.4269 11.8033 11.7395 11.7744 11.8608V11.8609ZM10.5785 10.3735C10.3593 10.1649 10.3854 9.8762 10.5241 9.69878C10.5945 9.6086 10.7065 9.54275 10.837 9.50575V10.5235C10.7343 10.4834 10.6436 10.4357 10.5785 10.3735H10.5785Z" fill="#009903"/>
<path d="M3.02833 7.54376H22.8053C22.857 7.54378 22.9065 7.56432 22.9431 7.60085C22.9796 7.63739 23.0001 7.68693 23.0002 7.7386V17.8976C23.0001 17.9493 22.9796 17.9988 22.9431 18.0354C22.9065 18.0719 22.857 18.0924 22.8053 18.0925H3.02837C2.97669 18.0924 2.92714 18.0719 2.8906 18.0353C2.85406 17.9988 2.83352 17.9493 2.8335 17.8976V7.73864C2.83352 7.68697 2.85405 7.63743 2.89059 7.60089C2.92712 7.56436 2.97666 7.54378 3.02833 7.54376Z" fill="#2AB52D"/>
<path fill-rule="evenodd" clip-rule="evenodd" d="M3.02837 7.54376H3.10003V18.0925H3.02837C2.97674 18.0924 2.92726 18.0718 2.89074 18.0353C2.85423 17.9988 2.83365 17.9493 2.8335 17.8977V7.73864C2.83365 7.687 2.85423 7.63753 2.89074 7.60102C2.92726 7.56452 2.97674 7.5439 3.02837 7.54376Z" fill="#009903"/>
<path fill-rule="evenodd" clip-rule="evenodd" d="M5.18896 7.54376H20.6447C20.6447 8.84464 21.6993 9.89923 23.0002 9.89923V15.737C21.6993 15.737 20.6447 16.7916 20.6447 18.0925H5.18896C5.18896 16.7916 4.13437 15.737 2.8335 15.737V9.89927C4.13437 9.89927 5.18896 8.84464 5.18896 7.54376Z" fill="#32D736"/>
<path fill-rule="evenodd" clip-rule="evenodd" d="M3.09998 15.7521C3.01151 15.7421 2.92254 15.7371 2.8335 15.737V9.89929C2.92363 9.89929 3.01253 9.89402 3.09998 9.88419V15.7521Z" fill="#2AB52D"/>
<path fill-rule="evenodd" clip-rule="evenodd" d="M6.02839 8.53145C5.70342 9.58333 4.87317 10.4136 3.82129 10.7385V14.8976C4.87317 15.2226 5.70346 16.0528 6.02839 17.1047H19.8053C20.1303 16.0528 20.9606 15.2225 22.0124 14.8976V10.7385C20.9606 10.4136 20.1303 9.58333 19.8053 8.53145H6.02839Z" fill="#51E854"/>
<path d="M15.1796 15.0835C16.4308 13.8323 16.4308 11.8037 15.1796 10.5526C13.9285 9.30141 11.8999 9.30141 10.6487 10.5526C9.39758 11.8037 9.39758 13.8323 10.6487 15.0835C11.8999 16.3346 13.9285 16.3346 15.1796 15.0835Z" fill="#7DFF7F"/>
<path fill-rule="evenodd" clip-rule="evenodd" d="M7.7793 12.8086C7.7793 12.7431 7.80531 12.6803 7.85162 12.634C7.89793 12.5877 7.96074 12.5617 8.02624 12.5617C8.09173 12.5617 8.15454 12.5877 8.20085 12.634C8.24716 12.6803 8.27317 12.7431 8.27317 12.8086V12.8276C8.27317 12.8931 8.24716 12.9559 8.20085 13.0022C8.15454 13.0485 8.09173 13.0745 8.02624 13.0745C7.96074 13.0745 7.89793 13.0485 7.85162 13.0022C7.80531 12.9559 7.7793 12.8931 7.7793 12.8276V12.8086ZM17.5604 12.8086C17.5604 12.7431 17.5864 12.6803 17.6327 12.634C17.6791 12.5877 17.7419 12.5617 17.8074 12.5617C17.8728 12.5617 17.9357 12.5877 17.982 12.634C18.0283 12.6803 18.0543 12.7431 18.0543 12.8086V12.8276C18.0543 12.8931 18.0283 12.9559 17.982 13.0022C17.9357 13.0485 17.8728 13.0745 17.8074 13.0745C17.7419 13.0745 17.6791 13.0485 17.6327 13.0022C17.5864 12.9559 17.5604 12.8931 17.5604 12.8276V12.8086Z" fill="#2AB52D"/>
<path fill-rule="evenodd" clip-rule="evenodd" d="M12.2036 13.6634C12.1976 13.6315 12.1853 13.6011 12.1676 13.574C12.1498 13.5469 12.1268 13.5235 12.1 13.5052C12.0459 13.4683 11.9793 13.4544 11.9149 13.4666C11.8506 13.4788 11.7937 13.5161 11.7568 13.5702C11.7199 13.6244 11.706 13.691 11.7182 13.7553C11.8168 14.2742 12.2332 14.5629 12.6699 14.6525V15.0467C12.6693 15.0795 12.6752 15.1121 12.6874 15.1426C12.6995 15.1731 12.7176 15.2008 12.7406 15.2243C12.7636 15.2477 12.791 15.2663 12.8212 15.279C12.8515 15.2916 12.884 15.2982 12.9168 15.2982C12.9496 15.2982 12.9821 15.2916 13.0123 15.279C13.0426 15.2663 13.07 15.2477 13.093 15.2243C13.116 15.2008 13.1341 15.1731 13.1462 15.1426C13.1583 15.1121 13.1643 15.0795 13.1637 15.0467V14.6716C13.6355 14.6139 13.9946 14.341 14.0876 13.9497C14.1676 13.6137 14.1639 13.0015 13.2391 12.6786C13.2143 12.67 13.1888 12.6622 13.1637 12.654V11.4777C13.2938 11.5116 13.57 11.6178 13.6248 11.9129C13.6493 12.0471 13.7782 12.1355 13.9123 12.1108C13.9767 12.0988 14.0337 12.0618 14.0708 12.0079C14.108 11.954 14.1222 11.8875 14.1104 11.8231C14.0346 11.4148 13.7198 11.1051 13.2683 10.9946C13.2337 10.9862 13.1988 10.979 13.1637 10.973V10.5895C13.1643 10.5567 13.1583 10.5241 13.1462 10.4936C13.1341 10.4631 13.116 10.4354 13.093 10.412C13.07 10.3886 13.0426 10.37 13.0123 10.3573C12.9821 10.3446 12.9496 10.338 12.9168 10.338C12.884 10.338 12.8515 10.3446 12.8212 10.3573C12.791 10.37 12.7636 10.3886 12.7406 10.412C12.7176 10.4354 12.6995 10.4631 12.6874 10.4936C12.6752 10.5241 12.6693 10.5567 12.6699 10.5895V10.9734C12.3841 11.0236 12.1307 11.1606 11.9677 11.3694C11.6516 11.7738 11.696 12.3482 12.0705 12.7052C12.2384 12.8655 12.4566 12.9536 12.6699 13.021V14.1439C12.4525 14.0763 12.2537 13.9279 12.2036 13.6634ZM13.6074 13.8354C13.5624 14.0229 13.3719 14.1305 13.1637 14.171V13.1781C13.7099 13.4014 13.6363 13.714 13.6074 13.8353V13.8354ZM12.4115 12.348C12.1923 12.1394 12.2184 11.8507 12.3571 11.6733C12.4275 11.5831 12.5395 11.5172 12.67 11.4802V12.498C12.5673 12.4579 12.4766 12.4102 12.4115 12.348H12.4115Z" fill="#009903"/>
</g>
</svg>
