<svg width="160" height="160" viewBox="0 0 160 160" fill="none" xmlns="http://www.w3.org/2000/svg">
            <g clip-path="url(#clip0_636_7784)">
              <path fill-rule="evenodd" clip-rule="evenodd"
                d="M80 160C124.183 160 160 124.183 160 80C160 35.8172 124.183 0 80 0C35.8172 0 0 35.8172 0 80C0 124.183 35.8172 160 80 160Z"
                fill="#7f2f8e" />
              <path
                d="M124.899 123.167L111.926 91.7715C111.827 91.5308 111.659 91.3249 111.443 91.1798C111.227 91.0346 110.972 90.9569 110.712 90.9564H49.288C49.0277 90.9569 48.7735 91.0346 48.5574 91.1798C48.3414 91.3249 48.1733 91.5308 48.0746 91.7715L35.101 123.167C35.0178 123.369 34.9852 123.587 35.0062 123.804C35.0271 124.021 35.1009 124.229 35.2211 124.411C35.3405 124.592 35.5028 124.74 35.6937 124.843C35.8845 124.946 36.0979 125 36.3147 125H123.686C123.902 125 124.116 124.946 124.307 124.843C124.497 124.74 124.66 124.591 124.779 124.411C124.899 124.229 124.973 124.021 124.994 123.804C125.015 123.587 124.982 123.369 124.899 123.167Z"
                fill="#A8EEFC" />
              <path
                d="M119.501 125H123.686C123.902 125 124.116 124.946 124.307 124.843C124.497 124.74 124.66 124.591 124.779 124.411C124.899 124.229 124.973 124.021 124.994 123.804C125.015 123.587 124.982 123.369 124.899 123.167L111.926 91.7715C111.827 91.5308 111.659 91.3249 111.443 91.1798C111.227 91.0346 110.972 90.9569 110.712 90.9564H105.433L119.501 125Z"
                fill="#7EE5F2" />
              <path
                d="M56.6428 102.797L61.1195 90.9271H49.2048C48.9446 90.9276 48.6903 91.0053 48.4743 91.1504C48.2582 91.2955 48.0902 91.5015 47.9914 91.7422L43.4231 102.797H56.6428ZM110.629 90.9271H69.2585L81.325 101.446H115.852L111.843 91.7424C111.744 91.5017 111.576 91.2957 111.36 91.1506C111.144 91.0054 110.889 90.9277 110.629 90.9271Z"
                fill="#4CE166" />
              <path
                d="M119.842 111.101L115.852 101.446H81.325L69.2585 90.9271H60.1339L55.7661 101.443H43.983L39.9921 111.101H51.7877L46.0566 124.971H56.7791L65.9842 102.44L92.5298 124.971H108.202L92.3371 111.101H119.842Z"
                fill="#FFDB56" />
              <path
                d="M79.9169 35C64.2617 35 51.5254 47.828 51.5254 63.5957C51.5254 69.0316 52.994 74.7988 55.8909 80.737C58.1831 85.4364 61.3727 90.2575 65.3704 95.0667C72.1528 103.226 78.8313 108.464 79.1125 108.683C79.3423 108.862 79.6254 108.96 79.9169 108.96C80.2085 108.96 80.4916 108.862 80.7214 108.683C81.0024 108.464 87.6809 103.226 94.4635 95.0667C98.4614 90.2575 101.651 85.4364 103.943 80.737C106.84 74.7986 108.308 69.0316 108.308 63.5957C108.308 47.828 95.5722 35 79.9169 35ZM79.9169 52.7184C85.8814 52.7184 90.7166 57.5884 90.7166 63.5957C90.7166 69.6031 85.8814 74.4731 79.9169 74.4731C73.9525 74.4731 69.1173 69.6031 69.1173 63.5957C69.1173 57.5884 73.9525 52.7184 79.9169 52.7184Z"
                fill="#FF4A4A" />
              <path
                d="M79.9169 35C78.9827 35 78.059 35.0471 77.1477 35.1362C91.508 36.5428 102.77 48.7689 102.77 63.5957C102.77 69.0316 101.301 74.7988 98.4044 80.737C96.1122 85.4364 92.9226 90.2575 88.925 95.0667C84.2733 100.662 79.6713 104.883 77.1477 107.054C78.3038 108.049 79.0242 108.614 79.1123 108.683C79.3421 108.862 79.6252 108.96 79.9168 108.96C80.2083 108.96 80.4914 108.862 80.7212 108.683C81.0022 108.464 87.6807 103.225 94.4633 95.0666C98.4612 90.2574 101.651 85.4362 103.943 80.7369C106.84 74.7985 108.308 69.0314 108.308 63.5956C108.308 47.828 95.5722 35 79.9169 35Z"
                fill="#E7343F" />
              <path d="M56.7791 124.971H92.5298L65.9842 102.44L56.7791 124.971Z" fill="#4CE166" />
              <path d="M109.696 101.446L113.686 111.101H119.842L115.852 101.446H109.696Z" fill="#FFBB24" />
              <path
                d="M109.696 101.446H115.852L111.843 91.7424C111.744 91.5017 111.576 91.2957 111.36 91.1506C111.144 91.0055 110.889 90.9277 110.629 90.9273H105.35L109.696 101.446Z"
                fill="#44C868" />
            </g>
            <defs>
              <clipPath id="clip0_636_7784">
                <rect width="160" height="160" fill="white" />
              </clipPath>
            </defs>
          </svg>